<svg id="visual" viewBox="0 0 900 250" width="900" height="250" xmlns="http://www.w3.org/2000/svg" xmlns:xlink="http://www.w3.org/1999/xlink" version="1.1"><path d="M0 149L16.7 151.5C33.3 154 66.7 159 100 167C133.3 175 166.7 186 200 189.7C233.3 193.3 266.7 189.7 300 177.7C333.3 165.7 366.7 145.3 400 137.5C433.3 129.7 466.7 134.3 500 147.8C533.3 161.3 566.7 183.7 600 189.7C633.3 195.7 666.7 185.3 700 173.2C733.3 161 766.7 147 800 150.2C833.3 153.3 866.7 173.7 883.3 183.8L900 194L900 0L883.3 0C866.7 0 833.3 0 800 0C766.7 0 733.3 0 700 0C666.7 0 633.3 0 600 0C566.7 0 533.3 0 500 0C466.7 0 433.3 0 400 0C366.7 0 333.3 0 300 0C266.7 0 233.3 0 200 0C166.7 0 133.3 0 100 0C66.7 0 33.3 0 16.7 0L0 0Z" fill="#aa73ff"></path><path d="M0 131L16.7 129.3C33.3 127.7 66.7 124.3 100 124.5C133.3 124.7 166.7 128.3 200 125.8C233.3 123.3 266.7 114.7 300 120.5C333.3 126.3 366.7 146.7 400 155.2C433.3 163.7 466.7 160.3 500 149.3C533.3 138.3 566.7 119.7 600 115.5C633.3 111.3 666.7 121.7 700 127.7C733.3 133.7 766.7 135.3 800 130.3C833.3 125.3 866.7 113.7 883.3 107.8L900 102L900 0L883.3 0C866.7 0 833.3 0 800 0C766.7 0 733.3 0 700 0C666.7 0 633.3 0 600 0C566.7 0 533.3 0 500 0C466.7 0 433.3 0 400 0C366.7 0 333.3 0 300 0C266.7 0 233.3 0 200 0C166.7 0 133.3 0 100 0C66.7 0 33.3 0 16.7 0L0 0Z" fill="#7f4dd4"></path><path d="M0 97L16.7 103.2C33.3 109.3 66.7 121.7 100 120.5C133.3 119.3 166.7 104.7 200 104.5C233.3 104.3 266.7 118.7 300 122.5C333.3 126.3 366.7 119.7 400 110.2C433.3 100.7 466.7 88.3 500 88.3C533.3 88.3 566.7 100.7 600 103.5C633.3 106.3 666.7 99.7 700 93C733.3 86.3 766.7 79.7 800 83C833.3 86.3 866.7 99.7 883.3 106.3L900 113L900 0L883.3 0C866.7 0 833.3 0 800 0C766.7 0 733.3 0 700 0C666.7 0 633.3 0 600 0C566.7 0 533.3 0 500 0C466.7 0 433.3 0 400 0C366.7 0 333.3 0 300 0C266.7 0 233.3 0 200 0C166.7 0 133.3 0 100 0C66.7 0 33.3 0 16.7 0L0 0Z" fill="#5427aa"></path><path d="M0 52L16.7 53.5C33.3 55 66.7 58 100 60C133.3 62 166.7 63 200 61.3C233.3 59.7 266.7 55.3 300 58.2C333.3 61 366.7 71 400 72.5C433.3 74 466.7 67 500 69.7C533.3 72.3 566.7 84.7 600 86.5C633.3 88.3 666.7 79.7 700 74.7C733.3 69.7 766.7 68.3 800 64.8C833.3 61.3 866.7 55.7 883.3 52.8L900 50L900 0L883.3 0C866.7 0 833.3 0 800 0C766.7 0 733.3 0 700 0C666.7 0 633.3 0 600 0C566.7 0 533.3 0 500 0C466.7 0 433.3 0 400 0C366.7 0 333.3 0 300 0C266.7 0 233.3 0 200 0C166.7 0 133.3 0 100 0C66.7 0 33.3 0 16.7 0L0 0Z" fill="#240082"></path><path d="M0 25L16.7 28C33.3 31 66.7 37 100 36.7C133.3 36.3 166.7 29.7 200 30.8C233.3 32 266.7 41 300 45.2C333.3 49.3 366.7 48.7 400 50.5C433.3 52.3 466.7 56.7 500 52C533.3 47.3 566.7 33.7 600 33.7C633.3 33.7 666.7 47.3 700 51.3C733.3 55.3 766.7 49.7 800 48.5C833.3 47.3 866.7 50.7 883.3 52.3L900 54L900 0L883.3 0C866.7 0 833.3 0 800 0C766.7 0 733.3 0 700 0C666.7 0 633.3 0 600 0C566.7 0 533.3 0 500 0C466.7 0 433.3 0 400 0C366.7 0 333.3 0 300 0C266.7 0 233.3 0 200 0C166.7 0 133.3 0 100 0C66.7 0 33.3 0 16.7 0L0 0Z" fill="#000000"></path></svg>