<svg id="visual" viewBox="0 0 960 960" width="960" height="960" xmlns="http://www.w3.org/2000/svg" xmlns:xlink="http://www.w3.org/1999/xlink" version="1.1"><rect x="0" y="0" width="960" height="960" fill="#d48aff"></rect><g transform="translate(486.31071276510306 459.49448281028333)"><path d="M224.9 -371.8C294.2 -349.6 355 -294.8 383.4 -227.4C411.8 -160 407.9 -80 390.6 -10C373.3 60 342.5 120 309.1 178.7C275.7 237.5 239.6 295 187.6 341C135.7 387 67.8 421.5 -2.4 425.7C-72.7 429.9 -145.3 403.7 -212.3 366.4C-279.3 329.1 -340.6 280.5 -375.6 217.6C-410.6 154.7 -419.3 77.3 -416.2 1.8C-413.2 -73.8 -398.4 -147.7 -361.5 -207.3C-324.6 -266.9 -265.5 -312.3 -201.6 -337.5C-137.7 -362.8 -68.8 -367.9 4.5 -375.7C77.8 -383.5 155.7 -394 224.9 -371.8" fill="#a7ffdf"></path></g></svg>