<svg id="visual" viewBox="0 0 960 200" width="960" height="200" xmlns="http://www.w3.org/2000/svg" xmlns:xlink="http://www.w3.org/1999/xlink" version="1.1"><rect x="0" y="0" width="960" height="200" fill="#9a74ff"></rect><path d="M0 159L22.8 160C45.7 161 91.3 163 137 156.3C182.7 149.7 228.3 134.3 274 122.8C319.7 111.3 365.3 103.7 411.2 102.3C457 101 503 106 548.8 112.7C594.7 119.3 640.3 127.7 686 127.7C731.7 127.7 777.3 119.3 823 111.7C868.7 104 914.3 97 937.2 93.5L960 90L960 0L937.2 0C914.3 0 868.7 0 823 0C777.3 0 731.7 0 686 0C640.3 0 594.7 0 548.8 0C503 0 457 0 411.2 0C365.3 0 319.7 0 274 0C228.3 0 182.7 0 137 0C91.3 0 45.7 0 22.8 0L0 0Z" fill="#7b73ff"></path><path d="M0 135L22.8 135.8C45.7 136.7 91.3 138.3 137 132.2C182.7 126 228.3 112 274 109.3C319.7 106.7 365.3 115.3 411.2 111.2C457 107 503 90 548.8 78.8C594.7 67.7 640.3 62.3 686 61.3C731.7 60.3 777.3 63.7 823 66.2C868.7 68.7 914.3 70.3 937.2 71.2L960 72L960 0L937.2 0C914.3 0 868.7 0 823 0C777.3 0 731.7 0 686 0C640.3 0 594.7 0 548.8 0C503 0 457 0 411.2 0C365.3 0 319.7 0 274 0C228.3 0 182.7 0 137 0C91.3 0 45.7 0 22.8 0L0 0Z" fill="#0e99ff"></path><path d="M0 93L22.8 99.2C45.7 105.3 91.3 117.7 137 123C182.7 128.3 228.3 126.7 274 118.7C319.7 110.7 365.3 96.3 411.2 88.7C457 81 503 80 548.8 82.5C594.7 85 640.3 91 686 91C731.7 91 777.3 85 823 88.8C868.7 92.7 914.3 106.3 937.2 113.2L960 120L960 0L937.2 0C914.3 0 868.7 0 823 0C777.3 0 731.7 0 686 0C640.3 0 594.7 0 548.8 0C503 0 457 0 411.2 0C365.3 0 319.7 0 274 0C228.3 0 182.7 0 137 0C91.3 0 45.7 0 22.8 0L0 0Z" fill="#00b6ff"></path><path d="M0 60L22.8 57.7C45.7 55.3 91.3 50.7 137 53.5C182.7 56.3 228.3 66.7 274 68.7C319.7 70.7 365.3 64.3 411.2 60.2C457 56 503 54 548.8 61.7C594.7 69.3 640.3 86.7 686 88.8C731.7 91 777.3 78 823 70.2C868.7 62.3 914.3 59.7 937.2 58.3L960 57L960 0L937.2 0C914.3 0 868.7 0 823 0C777.3 0 731.7 0 686 0C640.3 0 594.7 0 548.8 0C503 0 457 0 411.2 0C365.3 0 319.7 0 274 0C228.3 0 182.7 0 137 0C91.3 0 45.7 0 22.8 0L0 0Z" fill="#00cdff"></path><path d="M0 53L22.8 55.2C45.7 57.3 91.3 61.7 137 61.7C182.7 61.7 228.3 57.3 274 60C319.7 62.7 365.3 72.3 411.2 70.7C457 69 503 56 548.8 48.5C594.7 41 640.3 39 686 38.3C731.7 37.7 777.3 38.3 823 41.2C868.7 44 914.3 49 937.2 51.5L960 54L960 0L937.2 0C914.3 0 868.7 0 823 0C777.3 0 731.7 0 686 0C640.3 0 594.7 0 548.8 0C503 0 457 0 411.2 0C365.3 0 319.7 0 274 0C228.3 0 182.7 0 137 0C91.3 0 45.7 0 22.8 0L0 0Z" fill="#3ce0f5"></path><path d="M0 56L22.8 49.8C45.7 43.7 91.3 31.3 137 28C182.7 24.7 228.3 30.3 274 36.8C319.7 43.3 365.3 50.7 411.2 48.7C457 46.7 503 35.3 548.8 33.3C594.7 31.3 640.3 38.7 686 43.3C731.7 48 777.3 50 823 49.8C868.7 49.7 914.3 47.3 937.2 46.2L960 45L960 0L937.2 0C914.3 0 868.7 0 823 0C777.3 0 731.7 0 686 0C640.3 0 594.7 0 548.8 0C503 0 457 0 411.2 0C365.3 0 319.7 0 274 0C228.3 0 182.7 0 137 0C91.3 0 45.7 0 22.8 0L0 0Z" fill="#74f1e9"></path><path d="M0 24L22.8 25C45.7 26 91.3 28 137 29.7C182.7 31.3 228.3 32.7 274 29.2C319.7 25.7 365.3 17.3 411.2 15.2C457 13 503 17 548.8 18.5C594.7 20 640.3 19 686 20.2C731.7 21.3 777.3 24.7 823 28C868.7 31.3 914.3 34.7 937.2 36.3L960 38L960 0L937.2 0C914.3 0 868.7 0 823 0C777.3 0 731.7 0 686 0C640.3 0 594.7 0 548.8 0C503 0 457 0 411.2 0C365.3 0 319.7 0 274 0C228.3 0 182.7 0 137 0C91.3 0 45.7 0 22.8 0L0 0Z" fill="#a7ffdf"></path></svg>