<svg id="visual" viewBox="0 0 960 200" width="960" height="200" xmlns="http://www.w3.org/2000/svg" xmlns:xlink="http://www.w3.org/1999/xlink" version="1.1"><path d="M0 156L22.8 151.2C45.7 146.3 91.3 136.7 137 133.2C182.7 129.7 228.3 132.3 274 134C319.7 135.7 365.3 136.3 411.2 141C457 145.7 503 154.3 548.8 157.2C594.7 160 640.3 157 686 148.3C731.7 139.7 777.3 125.3 823 123.8C868.7 122.3 914.3 133.7 937.2 139.3L960 145L960 0L937.2 0C914.3 0 868.7 0 823 0C777.3 0 731.7 0 686 0C640.3 0 594.7 0 548.8 0C503 0 457 0 411.2 0C365.3 0 319.7 0 274 0C228.3 0 182.7 0 137 0C91.3 0 45.7 0 22.8 0L0 0Z" fill="#9c9fff"></path><path d="M0 141L22.8 133.2C45.7 125.3 91.3 109.7 137 110.3C182.7 111 228.3 128 274 128.5C319.7 129 365.3 113 411.2 105C457 97 503 97 548.8 99.2C594.7 101.3 640.3 105.7 686 111.7C731.7 117.7 777.3 125.3 823 125.5C868.7 125.7 914.3 118.3 937.2 114.7L960 111L960 0L937.2 0C914.3 0 868.7 0 823 0C777.3 0 731.7 0 686 0C640.3 0 594.7 0 548.8 0C503 0 457 0 411.2 0C365.3 0 319.7 0 274 0C228.3 0 182.7 0 137 0C91.3 0 45.7 0 22.8 0L0 0Z" fill="#5dbaff"></path><path d="M0 79L22.8 82.7C45.7 86.3 91.3 93.7 137 97.7C182.7 101.7 228.3 102.3 274 105.2C319.7 108 365.3 113 411.2 109.3C457 105.7 503 93.3 548.8 92.2C594.7 91 640.3 101 686 107.8C731.7 114.7 777.3 118.3 823 113.5C868.7 108.7 914.3 95.3 937.2 88.7L960 82L960 0L937.2 0C914.3 0 868.7 0 823 0C777.3 0 731.7 0 686 0C640.3 0 594.7 0 548.8 0C503 0 457 0 411.2 0C365.3 0 319.7 0 274 0C228.3 0 182.7 0 137 0C91.3 0 45.7 0 22.8 0L0 0Z" fill="#00d0ff"></path><path d="M0 86L22.8 86.5C45.7 87 91.3 88 137 90.3C182.7 92.7 228.3 96.3 274 91.2C319.7 86 365.3 72 411.2 72.2C457 72.3 503 86.7 548.8 86.8C594.7 87 640.3 73 686 72.3C731.7 71.7 777.3 84.3 823 91C868.7 97.7 914.3 98.3 937.2 98.7L960 99L960 0L937.2 0C914.3 0 868.7 0 823 0C777.3 0 731.7 0 686 0C640.3 0 594.7 0 548.8 0C503 0 457 0 411.2 0C365.3 0 319.7 0 274 0C228.3 0 182.7 0 137 0C91.3 0 45.7 0 22.8 0L0 0Z" fill="#00e2fb"></path><path d="M0 76L22.8 75C45.7 74 91.3 72 137 68.8C182.7 65.7 228.3 61.3 274 62.2C319.7 63 365.3 69 411.2 68C457 67 503 59 548.8 54C594.7 49 640.3 47 686 49C731.7 51 777.3 57 823 59.2C868.7 61.3 914.3 59.7 937.2 58.8L960 58L960 0L937.2 0C914.3 0 868.7 0 823 0C777.3 0 731.7 0 686 0C640.3 0 594.7 0 548.8 0C503 0 457 0 411.2 0C365.3 0 319.7 0 274 0C228.3 0 182.7 0 137 0C91.3 0 45.7 0 22.8 0L0 0Z" fill="#5befe2"></path><path d="M0 34L22.8 34C45.7 34 91.3 34 137 36.5C182.7 39 228.3 44 274 45.7C319.7 47.3 365.3 45.7 411.2 46.7C457 47.7 503 51.3 548.8 49.8C594.7 48.3 640.3 41.7 686 39.3C731.7 37 777.3 39 823 42.2C868.7 45.3 914.3 49.7 937.2 51.8L960 54L960 0L937.2 0C914.3 0 868.7 0 823 0C777.3 0 731.7 0 686 0C640.3 0 594.7 0 548.8 0C503 0 457 0 411.2 0C365.3 0 319.7 0 274 0C228.3 0 182.7 0 137 0C91.3 0 45.7 0 22.8 0L0 0Z" fill="#99f9ca"></path><path d="M0 14L22.8 16.2C45.7 18.3 91.3 22.7 137 24.8C182.7 27 228.3 27 274 27.7C319.7 28.3 365.3 29.7 411.2 27.3C457 25 503 19 548.8 17.8C594.7 16.7 640.3 20.3 686 21C731.7 21.7 777.3 19.3 823 19.5C868.7 19.7 914.3 22.3 937.2 23.7L960 25L960 0L937.2 0C914.3 0 868.7 0 823 0C777.3 0 731.7 0 686 0C640.3 0 594.7 0 548.8 0C503 0 457 0 411.2 0C365.3 0 319.7 0 274 0C228.3 0 182.7 0 137 0C91.3 0 45.7 0 22.8 0L0 0Z" fill="#d1ffb9"></path></svg>