<svg id="visual" viewBox="0 0 960 200" width="960" height="200" xmlns="http://www.w3.org/2000/svg" xmlns:xlink="http://www.w3.org/1999/xlink" version="1.1"><path d="M0 122L22.8 124.8C45.7 127.7 91.3 133.3 137 134.3C182.7 135.3 228.3 131.7 274 126C319.7 120.3 365.3 112.7 411.2 110.7C457 108.7 503 112.3 548.8 118.7C594.7 125 640.3 134 686 139.2C731.7 144.3 777.3 145.7 823 139.2C868.7 132.7 914.3 118.3 937.2 111.2L960 104L960 0L937.2 0C914.3 0 868.7 0 823 0C777.3 0 731.7 0 686 0C640.3 0 594.7 0 548.8 0C503 0 457 0 411.2 0C365.3 0 319.7 0 274 0C228.3 0 182.7 0 137 0C91.3 0 45.7 0 22.8 0L0 0Z" fill="#94fff5"></path><path d="M0 139L22.8 138.2C45.7 137.3 91.3 135.7 137 133.8C182.7 132 228.3 130 274 123.7C319.7 117.3 365.3 106.7 411.2 99.8C457 93 503 90 548.8 96.8C594.7 103.7 640.3 120.3 686 126.5C731.7 132.7 777.3 128.3 823 120.2C868.7 112 914.3 100 937.2 94L960 88L960 0L937.2 0C914.3 0 868.7 0 823 0C777.3 0 731.7 0 686 0C640.3 0 594.7 0 548.8 0C503 0 457 0 411.2 0C365.3 0 319.7 0 274 0C228.3 0 182.7 0 137 0C91.3 0 45.7 0 22.8 0L0 0Z" fill="#62ecf9"></path><path d="M0 106L22.8 100C45.7 94 91.3 82 137 76C182.7 70 228.3 70 274 74.5C319.7 79 365.3 88 411.2 88.8C457 89.7 503 82.3 548.8 77.7C594.7 73 640.3 71 686 77.2C731.7 83.3 777.3 97.7 823 104.8C868.7 112 914.3 112 937.2 112L960 112L960 0L937.2 0C914.3 0 868.7 0 823 0C777.3 0 731.7 0 686 0C640.3 0 594.7 0 548.8 0C503 0 457 0 411.2 0C365.3 0 319.7 0 274 0C228.3 0 182.7 0 137 0C91.3 0 45.7 0 22.8 0L0 0Z" fill="#29d7fe"></path><path d="M0 52L22.8 55.7C45.7 59.3 91.3 66.7 137 69.2C182.7 71.7 228.3 69.3 274 68.5C319.7 67.7 365.3 68.3 411.2 69.5C457 70.7 503 72.3 548.8 75.3C594.7 78.3 640.3 82.7 686 85C731.7 87.3 777.3 87.7 823 82.5C868.7 77.3 914.3 66.7 937.2 61.3L960 56L960 0L937.2 0C914.3 0 868.7 0 823 0C777.3 0 731.7 0 686 0C640.3 0 594.7 0 548.8 0C503 0 457 0 411.2 0C365.3 0 319.7 0 274 0C228.3 0 182.7 0 137 0C91.3 0 45.7 0 22.8 0L0 0Z" fill="#00c0ff"></path><path d="M0 62L22.8 57.3C45.7 52.7 91.3 43.3 137 41.8C182.7 40.3 228.3 46.7 274 47.3C319.7 48 365.3 43 411.2 43.2C457 43.3 503 48.7 548.8 51.8C594.7 55 640.3 56 686 55.2C731.7 54.3 777.3 51.7 823 53.2C868.7 54.7 914.3 60.3 937.2 63.2L960 66L960 0L937.2 0C914.3 0 868.7 0 823 0C777.3 0 731.7 0 686 0C640.3 0 594.7 0 548.8 0C503 0 457 0 411.2 0C365.3 0 319.7 0 274 0C228.3 0 182.7 0 137 0C91.3 0 45.7 0 22.8 0L0 0Z" fill="#35a1ff"></path><path d="M0 39L22.8 37.5C45.7 36 91.3 33 137 30.5C182.7 28 228.3 26 274 27.2C319.7 28.3 365.3 32.7 411.2 32.8C457 33 503 29 548.8 25.8C594.7 22.7 640.3 20.3 686 22.8C731.7 25.3 777.3 32.7 823 35.5C868.7 38.3 914.3 36.7 937.2 35.8L960 35L960 0L937.2 0C914.3 0 868.7 0 823 0C777.3 0 731.7 0 686 0C640.3 0 594.7 0 548.8 0C503 0 457 0 411.2 0C365.3 0 319.7 0 274 0C228.3 0 182.7 0 137 0C91.3 0 45.7 0 22.8 0L0 0Z" fill="#9a74ff"></path></svg>