<svg id="visual" viewBox="0 0 960 200" width="960" height="200" xmlns="http://www.w3.org/2000/svg" xmlns:xlink="http://www.w3.org/1999/xlink" version="1.1"><rect x="0" y="0" width="960" height="200" fill="#A7FFDF"></rect><path d="M0 168L22.8 165.5C45.7 163 91.3 158 137 143.2C182.7 128.3 228.3 103.7 274 97C319.7 90.3 365.3 101.7 411.2 108.3C457 115 503 117 548.8 112.5C594.7 108 640.3 97 686 96.5C731.7 96 777.3 106 823 115.7C868.7 125.3 914.3 134.7 937.2 139.3L960 144L960 0L937.2 0C914.3 0 868.7 0 823 0C777.3 0 731.7 0 686 0C640.3 0 594.7 0 548.8 0C503 0 457 0 411.2 0C365.3 0 319.7 0 274 0C228.3 0 182.7 0 137 0C91.3 0 45.7 0 22.8 0L0 0Z" fill="#90d3ff"></path><path d="M0 144L22.8 135.8C45.7 127.7 91.3 111.3 137 110.8C182.7 110.3 228.3 125.7 274 134.7C319.7 143.7 365.3 146.3 411.2 138.3C457 130.3 503 111.7 548.8 106.2C594.7 100.7 640.3 108.3 686 112.8C731.7 117.3 777.3 118.7 823 114.8C868.7 111 914.3 102 937.2 97.5L960 93L960 0L937.2 0C914.3 0 868.7 0 823 0C777.3 0 731.7 0 686 0C640.3 0 594.7 0 548.8 0C503 0 457 0 411.2 0C365.3 0 319.7 0 274 0C228.3 0 182.7 0 137 0C91.3 0 45.7 0 22.8 0L0 0Z" fill="#7cc4ff"></path><path d="M0 108L22.8 98.8C45.7 89.7 91.3 71.3 137 61.3C182.7 51.3 228.3 49.7 274 50.7C319.7 51.7 365.3 55.3 411.2 65.7C457 76 503 93 548.8 99.3C594.7 105.7 640.3 101.3 686 100.8C731.7 100.3 777.3 103.7 823 102.2C868.7 100.7 914.3 94.3 937.2 91.2L960 88L960 0L937.2 0C914.3 0 868.7 0 823 0C777.3 0 731.7 0 686 0C640.3 0 594.7 0 548.8 0C503 0 457 0 411.2 0C365.3 0 319.7 0 274 0C228.3 0 182.7 0 137 0C91.3 0 45.7 0 22.8 0L0 0Z" fill="#6eb4ff"></path><path d="M0 67L22.8 71.3C45.7 75.7 91.3 84.3 137 79.5C182.7 74.7 228.3 56.3 274 55.5C319.7 54.7 365.3 71.3 411.2 79C457 86.7 503 85.3 548.8 80.2C594.7 75 640.3 66 686 63.5C731.7 61 777.3 65 823 64.2C868.7 63.3 914.3 57.7 937.2 54.8L960 52L960 0L937.2 0C914.3 0 868.7 0 823 0C777.3 0 731.7 0 686 0C640.3 0 594.7 0 548.8 0C503 0 457 0 411.2 0C365.3 0 319.7 0 274 0C228.3 0 182.7 0 137 0C91.3 0 45.7 0 22.8 0L0 0Z" fill="#6ba3ff"></path><path d="M0 39L22.8 38.7C45.7 38.3 91.3 37.7 137 38.8C182.7 40 228.3 43 274 49C319.7 55 365.3 64 411.2 60.3C457 56.7 503 40.3 548.8 39C594.7 37.7 640.3 51.3 686 51.7C731.7 52 777.3 39 823 34.5C868.7 30 914.3 34 937.2 36L960 38L960 0L937.2 0C914.3 0 868.7 0 823 0C777.3 0 731.7 0 686 0C640.3 0 594.7 0 548.8 0C503 0 457 0 411.2 0C365.3 0 319.7 0 274 0C228.3 0 182.7 0 137 0C91.3 0 45.7 0 22.8 0L0 0Z" fill="#7c8fff"></path><path d="M0 30L22.8 31C45.7 32 91.3 34 137 33.8C182.7 33.7 228.3 31.3 274 31.2C319.7 31 365.3 33 411.2 32.5C457 32 503 29 548.8 30.7C594.7 32.3 640.3 38.7 686 37C731.7 35.3 777.3 25.7 823 26.2C868.7 26.7 914.3 37.3 937.2 42.7L960 48L960 0L937.2 0C914.3 0 868.7 0 823 0C777.3 0 731.7 0 686 0C640.3 0 594.7 0 548.8 0C503 0 457 0 411.2 0C365.3 0 319.7 0 274 0C228.3 0 182.7 0 137 0C91.3 0 45.7 0 22.8 0L0 0Z" fill="#9a74ff"></path></svg>