<svg id="visual" viewBox="0 0 960 250" width="960" height="250" xmlns="http://www.w3.org/2000/svg" xmlns:xlink="http://www.w3.org/1999/xlink" version="1.1"><path d="M0 46L22.8 46.8C45.7 47.7 91.3 49.3 137 54.3C182.7 59.3 228.3 67.7 274 74.5C319.7 81.3 365.3 86.7 411.2 82.8C457 79 503 66 548.8 69.5C594.7 73 640.3 93 686 93.8C731.7 94.7 777.3 76.3 823 70.8C868.7 65.3 914.3 72.7 937.2 76.3L960 80L960 251L937.2 251C914.3 251 868.7 251 823 251C777.3 251 731.7 251 686 251C640.3 251 594.7 251 548.8 251C503 251 457 251 411.2 251C365.3 251 319.7 251 274 251C228.3 251 182.7 251 137 251C91.3 251 45.7 251 22.8 251L0 251Z" fill="#c99cff"></path><path d="M0 129L22.8 126.2C45.7 123.3 91.3 117.7 137 110.5C182.7 103.3 228.3 94.7 274 97.3C319.7 100 365.3 114 411.2 121.2C457 128.3 503 128.7 548.8 119.5C594.7 110.3 640.3 91.7 686 89.8C731.7 88 777.3 103 823 106.3C868.7 109.7 914.3 101.3 937.2 97.2L960 93L960 251L937.2 251C914.3 251 868.7 251 823 251C777.3 251 731.7 251 686 251C640.3 251 594.7 251 548.8 251C503 251 457 251 411.2 251C365.3 251 319.7 251 274 251C228.3 251 182.7 251 137 251C91.3 251 45.7 251 22.8 251L0 251Z" fill="#a076d6"></path><path d="M0 145L22.8 145.5C45.7 146 91.3 147 137 147.3C182.7 147.7 228.3 147.3 274 140.2C319.7 133 365.3 119 411.2 113C457 107 503 109 548.8 118.8C594.7 128.7 640.3 146.3 686 151.7C731.7 157 777.3 150 823 142.3C868.7 134.7 914.3 126.3 937.2 122.2L960 118L960 251L937.2 251C914.3 251 868.7 251 823 251C777.3 251 731.7 251 686 251C640.3 251 594.7 251 548.8 251C503 251 457 251 411.2 251C365.3 251 319.7 251 274 251C228.3 251 182.7 251 137 251C91.3 251 45.7 251 22.8 251L0 251Z" fill="#7952ad"></path><path d="M0 158L22.8 158C45.7 158 91.3 158 137 158.7C182.7 159.3 228.3 160.7 274 157.8C319.7 155 365.3 148 411.2 148.7C457 149.3 503 157.7 548.8 161.5C594.7 165.3 640.3 164.7 686 164C731.7 163.3 777.3 162.7 823 159C868.7 155.3 914.3 148.7 937.2 145.3L960 142L960 251L937.2 251C914.3 251 868.7 251 823 251C777.3 251 731.7 251 686 251C640.3 251 594.7 251 548.8 251C503 251 457 251 411.2 251C365.3 251 319.7 251 274 251C228.3 251 182.7 251 137 251C91.3 251 45.7 251 22.8 251L0 251Z" fill="#533087"></path><path d="M0 176L22.8 177.5C45.7 179 91.3 182 137 183.7C182.7 185.3 228.3 185.7 274 184.7C319.7 183.7 365.3 181.3 411.2 183C457 184.7 503 190.3 548.8 191.3C594.7 192.3 640.3 188.7 686 189.7C731.7 190.7 777.3 196.3 823 196.5C868.7 196.7 914.3 191.3 937.2 188.7L960 186L960 251L937.2 251C914.3 251 868.7 251 823 251C777.3 251 731.7 251 686 251C640.3 251 594.7 251 548.8 251C503 251 457 251 411.2 251C365.3 251 319.7 251 274 251C228.3 251 182.7 251 137 251C91.3 251 45.7 251 22.8 251L0 251Z" fill="#2e0f62"></path><path d="M0 228L22.8 225.5C45.7 223 91.3 218 137 216.8C182.7 215.7 228.3 218.3 274 218.5C319.7 218.7 365.3 216.3 411.2 212.7C457 209 503 204 548.8 201.8C594.7 199.7 640.3 200.3 686 205.2C731.7 210 777.3 219 823 220.7C868.7 222.3 914.3 216.7 937.2 213.8L960 211L960 251L937.2 251C914.3 251 868.7 251 823 251C777.3 251 731.7 251 686 251C640.3 251 594.7 251 548.8 251C503 251 457 251 411.2 251C365.3 251 319.7 251 274 251C228.3 251 182.7 251 137 251C91.3 251 45.7 251 22.8 251L0 251Z" fill="#000000"></path></svg>