<svg id="visual" viewBox="0 0 960 200" width="960" height="200" xmlns="http://www.w3.org/2000/svg" xmlns:xlink="http://www.w3.org/1999/xlink" version="1.1"><path d="M0 137L22.8 135.3C45.7 133.7 91.3 130.3 137 128C182.7 125.7 228.3 124.3 274 129.8C319.7 135.3 365.3 147.7 411.2 152.7C457 157.7 503 155.3 548.8 155.3C594.7 155.3 640.3 157.7 686 156.7C731.7 155.7 777.3 151.3 823 143.8C868.7 136.3 914.3 125.7 937.2 120.3L960 115L960 0L937.2 0C914.3 0 868.7 0 823 0C777.3 0 731.7 0 686 0C640.3 0 594.7 0 548.8 0C503 0 457 0 411.2 0C365.3 0 319.7 0 274 0C228.3 0 182.7 0 137 0C91.3 0 45.7 0 22.8 0L0 0Z" fill="#bbeaff"></path><path d="M0 125L22.8 122.7C45.7 120.3 91.3 115.7 137 110.8C182.7 106 228.3 101 274 96.5C319.7 92 365.3 88 411.2 94.3C457 100.7 503 117.3 548.8 122.5C594.7 127.7 640.3 121.3 686 114.8C731.7 108.3 777.3 101.7 823 97.3C868.7 93 914.3 91 937.2 90L960 89L960 0L937.2 0C914.3 0 868.7 0 823 0C777.3 0 731.7 0 686 0C640.3 0 594.7 0 548.8 0C503 0 457 0 411.2 0C365.3 0 319.7 0 274 0C228.3 0 182.7 0 137 0C91.3 0 45.7 0 22.8 0L0 0Z" fill="#8fd4ff"></path><path d="M0 102L22.8 101.5C45.7 101 91.3 100 137 92.7C182.7 85.3 228.3 71.7 274 71.5C319.7 71.3 365.3 84.7 411.2 89.2C457 93.7 503 89.3 548.8 84.7C594.7 80 640.3 75 686 74.3C731.7 73.7 777.3 77.3 823 83.2C868.7 89 914.3 97 937.2 101L960 105L960 0L937.2 0C914.3 0 868.7 0 823 0C777.3 0 731.7 0 686 0C640.3 0 594.7 0 548.8 0C503 0 457 0 411.2 0C365.3 0 319.7 0 274 0C228.3 0 182.7 0 137 0C91.3 0 45.7 0 22.8 0L0 0Z" fill="#6dbbff"></path><path d="M0 77L22.8 72.7C45.7 68.3 91.3 59.7 137 57.2C182.7 54.7 228.3 58.3 274 58.3C319.7 58.3 365.3 54.7 411.2 52.3C457 50 503 49 548.8 49.8C594.7 50.7 640.3 53.3 686 53.3C731.7 53.3 777.3 50.7 823 50.8C868.7 51 914.3 54 937.2 55.5L960 57L960 0L937.2 0C914.3 0 868.7 0 823 0C777.3 0 731.7 0 686 0C640.3 0 594.7 0 548.8 0C503 0 457 0 411.2 0C365.3 0 319.7 0 274 0C228.3 0 182.7 0 137 0C91.3 0 45.7 0 22.8 0L0 0Z" fill="#6c9eff"></path><path d="M0 46L22.8 42.7C45.7 39.3 91.3 32.7 137 28C182.7 23.3 228.3 20.7 274 21.7C319.7 22.7 365.3 27.3 411.2 31.7C457 36 503 40 548.8 38.8C594.7 37.7 640.3 31.3 686 32.2C731.7 33 777.3 41 823 42.3C868.7 43.7 914.3 38.3 937.2 35.7L960 33L960 0L937.2 0C914.3 0 868.7 0 823 0C777.3 0 731.7 0 686 0C640.3 0 594.7 0 548.8 0C503 0 457 0 411.2 0C365.3 0 319.7 0 274 0C228.3 0 182.7 0 137 0C91.3 0 45.7 0 22.8 0L0 0Z" fill="#9a74ff"></path></svg>