<svg id="visual" viewBox="0 0 960 250" width="960" height="250" xmlns="http://www.w3.org/2000/svg" xmlns:xlink="http://www.w3.org/1999/xlink" version="1.1"><rect x="0" y="0" width="960" height="250" fill="#8674ff"></rect><path d="M0 163L22.8 160.2C45.7 157.3 91.3 151.7 137 160.7C182.7 169.7 228.3 193.3 274 185.2C319.7 177 365.3 137 411.2 130.5C457 124 503 151 548.8 159C594.7 167 640.3 156 686 148.7C731.7 141.3 777.3 137.7 823 139.8C868.7 142 914.3 150 937.2 154L960 158L960 0L937.2 0C914.3 0 868.7 0 823 0C777.3 0 731.7 0 686 0C640.3 0 594.7 0 548.8 0C503 0 457 0 411.2 0C365.3 0 319.7 0 274 0C228.3 0 182.7 0 137 0C91.3 0 45.7 0 22.8 0L0 0Z" fill="#9a74ff"></path><path d="M0 123L22.8 129.8C45.7 136.7 91.3 150.3 137 146.7C182.7 143 228.3 122 274 117.5C319.7 113 365.3 125 411.2 138.3C457 151.7 503 166.3 548.8 157.8C594.7 149.3 640.3 117.7 686 107.2C731.7 96.7 777.3 107.3 823 105.5C868.7 103.7 914.3 89.3 937.2 82.2L960 75L960 0L937.2 0C914.3 0 868.7 0 823 0C777.3 0 731.7 0 686 0C640.3 0 594.7 0 548.8 0C503 0 457 0 411.2 0C365.3 0 319.7 0 274 0C228.3 0 182.7 0 137 0C91.3 0 45.7 0 22.8 0L0 0Z" fill="#7856dd"></path><path d="M0 115L22.8 119.5C45.7 124 91.3 133 137 131.2C182.7 129.3 228.3 116.7 274 110.5C319.7 104.3 365.3 104.7 411.2 96.3C457 88 503 71 548.8 74.2C594.7 77.3 640.3 100.7 686 106.2C731.7 111.7 777.3 99.3 823 101.2C868.7 103 914.3 119 937.2 127L960 135L960 0L937.2 0C914.3 0 868.7 0 823 0C777.3 0 731.7 0 686 0C640.3 0 594.7 0 548.8 0C503 0 457 0 411.2 0C365.3 0 319.7 0 274 0C228.3 0 182.7 0 137 0C91.3 0 45.7 0 22.8 0L0 0Z" fill="#553abb"></path><path d="M0 45L22.8 56.3C45.7 67.7 91.3 90.3 137 90.3C182.7 90.3 228.3 67.7 274 59.3C319.7 51 365.3 57 411.2 67C457 77 503 91 548.8 99.2C594.7 107.3 640.3 109.7 686 108C731.7 106.3 777.3 100.7 823 98.2C868.7 95.7 914.3 96.3 937.2 96.7L960 97L960 0L937.2 0C914.3 0 868.7 0 823 0C777.3 0 731.7 0 686 0C640.3 0 594.7 0 548.8 0C503 0 457 0 411.2 0C365.3 0 319.7 0 274 0C228.3 0 182.7 0 137 0C91.3 0 45.7 0 22.8 0L0 0Z" fill="#2f1e9b"></path><path d="M0 59L22.8 56.3C45.7 53.7 91.3 48.3 137 51.7C182.7 55 228.3 67 274 64.7C319.7 62.3 365.3 45.7 411.2 41.7C457 37.7 503 46.3 548.8 52.3C594.7 58.3 640.3 61.7 686 63C731.7 64.3 777.3 63.7 823 66.3C868.7 69 914.3 75 937.2 78L960 81L960 0L937.2 0C914.3 0 868.7 0 823 0C777.3 0 731.7 0 686 0C640.3 0 594.7 0 548.8 0C503 0 457 0 411.2 0C365.3 0 319.7 0 274 0C228.3 0 182.7 0 137 0C91.3 0 45.7 0 22.8 0L0 0Z" fill="#00027c"></path><path d="M0 25L22.8 25.5C45.7 26 91.3 27 137 25C182.7 23 228.3 18 274 18.3C319.7 18.7 365.3 24.3 411.2 29.2C457 34 503 38 548.8 37C594.7 36 640.3 30 686 32C731.7 34 777.3 44 823 42.8C868.7 41.7 914.3 29.3 937.2 23.2L960 17L960 0L937.2 0C914.3 0 868.7 0 823 0C777.3 0 731.7 0 686 0C640.3 0 594.7 0 548.8 0C503 0 457 0 411.2 0C365.3 0 319.7 0 274 0C228.3 0 182.7 0 137 0C91.3 0 45.7 0 22.8 0L0 0Z" fill="#000000"></path></svg>