<svg id="visual" viewBox="0 0 960 250" width="960" height="250" xmlns="http://www.w3.org/2000/svg" xmlns:xlink="http://www.w3.org/1999/xlink" version="1.1"><rect x="0" y="0" width="960" height="250" fill="#d48aff"></rect><path d="M0 200L22.8 193.5C45.7 187 91.3 174 137 165.7C182.7 157.3 228.3 153.7 274 154.2C319.7 154.7 365.3 159.3 411.2 168.3C457 177.3 503 190.7 548.8 189C594.7 187.3 640.3 170.7 686 166.3C731.7 162 777.3 170 823 170.2C868.7 170.3 914.3 162.7 937.2 158.8L960 155L960 0L937.2 0C914.3 0 868.7 0 823 0C777.3 0 731.7 0 686 0C640.3 0 594.7 0 548.8 0C503 0 457 0 411.2 0C365.3 0 319.7 0 274 0C228.3 0 182.7 0 137 0C91.3 0 45.7 0 22.8 0L0 0Z" fill="#ca6dff"></path><path d="M0 109L22.8 107.7C45.7 106.3 91.3 103.7 137 108C182.7 112.3 228.3 123.7 274 129C319.7 134.3 365.3 133.7 411.2 132.5C457 131.3 503 129.7 548.8 125.7C594.7 121.7 640.3 115.3 686 121.7C731.7 128 777.3 147 823 156.7C868.7 166.3 914.3 166.7 937.2 166.8L960 167L960 0L937.2 0C914.3 0 868.7 0 823 0C777.3 0 731.7 0 686 0C640.3 0 594.7 0 548.8 0C503 0 457 0 411.2 0C365.3 0 319.7 0 274 0C228.3 0 182.7 0 137 0C91.3 0 45.7 0 22.8 0L0 0Z" fill="#9d43d2"></path><path d="M0 104L22.8 105.5C45.7 107 91.3 110 137 105.5C182.7 101 228.3 89 274 87.8C319.7 86.7 365.3 96.3 411.2 102.3C457 108.3 503 110.7 548.8 111C594.7 111.3 640.3 109.7 686 104C731.7 98.3 777.3 88.7 823 87C868.7 85.3 914.3 91.7 937.2 94.8L960 98L960 0L937.2 0C914.3 0 868.7 0 823 0C777.3 0 731.7 0 686 0C640.3 0 594.7 0 548.8 0C503 0 457 0 411.2 0C365.3 0 319.7 0 274 0C228.3 0 182.7 0 137 0C91.3 0 45.7 0 22.8 0L0 0Z" fill="#7112a7"></path><path d="M0 58L22.8 61.7C45.7 65.3 91.3 72.7 137 72.5C182.7 72.3 228.3 64.7 274 60.7C319.7 56.7 365.3 56.3 411.2 62.2C457 68 503 80 548.8 79.7C594.7 79.3 640.3 66.7 686 65C731.7 63.3 777.3 72.7 823 78.2C868.7 83.7 914.3 85.3 937.2 86.2L960 87L960 0L937.2 0C914.3 0 868.7 0 823 0C777.3 0 731.7 0 686 0C640.3 0 594.7 0 548.8 0C503 0 457 0 411.2 0C365.3 0 319.7 0 274 0C228.3 0 182.7 0 137 0C91.3 0 45.7 0 22.8 0L0 0Z" fill="#45007d"></path><path d="M0 51L22.8 50.7C45.7 50.3 91.3 49.7 137 45.7C182.7 41.7 228.3 34.3 274 35.5C319.7 36.7 365.3 46.3 411.2 47.2C457 48 503 40 548.8 37.8C594.7 35.7 640.3 39.3 686 40.7C731.7 42 777.3 41 823 43C868.7 45 914.3 50 937.2 52.5L960 55L960 0L937.2 0C914.3 0 868.7 0 823 0C777.3 0 731.7 0 686 0C640.3 0 594.7 0 548.8 0C503 0 457 0 411.2 0C365.3 0 319.7 0 274 0C228.3 0 182.7 0 137 0C91.3 0 45.7 0 22.8 0L0 0Z" fill="#000000"></path></svg>