<svg id="visual" viewBox="0 0 960 250" width="960" height="250" xmlns="http://www.w3.org/2000/svg" xmlns:xlink="http://www.w3.org/1999/xlink" version="1.1"><rect x="0" y="0" width="960" height="250" fill="#d48aff"></rect><path d="M0 93L16 97C32 101 64 109 96 106.5C128 104 160 91 192 78.5C224 66 256 54 288 45.5C320 37 352 32 384 36C416 40 448 53 480 71.8C512 90.7 544 115.3 576 119.3C608 123.3 640 106.7 672 89.2C704 71.7 736 53.3 768 61.3C800 69.3 832 103.7 864 113.8C896 124 928 110 944 103L960 96L960 251L944 251C928 251 896 251 864 251C832 251 800 251 768 251C736 251 704 251 672 251C640 251 608 251 576 251C544 251 512 251 480 251C448 251 416 251 384 251C352 251 320 251 288 251C256 251 224 251 192 251C160 251 128 251 96 251C64 251 32 251 16 251L0 251Z" fill="#ca6dff"></path><path d="M0 136L16 139.5C32 143 64 150 96 145.7C128 141.3 160 125.7 192 111.5C224 97.3 256 84.7 288 88.2C320 91.7 352 111.3 384 111.8C416 112.3 448 93.7 480 85.5C512 77.3 544 79.7 576 89.3C608 99 640 116 672 126.8C704 137.7 736 142.3 768 136.5C800 130.7 832 114.3 864 105C896 95.7 928 93.3 944 92.2L960 91L960 251L944 251C928 251 896 251 864 251C832 251 800 251 768 251C736 251 704 251 672 251C640 251 608 251 576 251C544 251 512 251 480 251C448 251 416 251 384 251C352 251 320 251 288 251C256 251 224 251 192 251C160 251 128 251 96 251C64 251 32 251 16 251L0 251Z" fill="#8e34c4"></path><path d="M0 146L16 153.8C32 161.7 64 177.3 96 178.2C128 179 160 165 192 165.8C224 166.7 256 182.3 288 177.2C320 172 352 146 384 133.3C416 120.7 448 121.3 480 121.5C512 121.7 544 121.3 576 129.2C608 137 640 153 672 152.7C704 152.3 736 135.7 768 137.7C800 139.7 832 160.3 864 168.2C896 176 928 171 944 168.5L960 166L960 251L944 251C928 251 896 251 864 251C832 251 800 251 768 251C736 251 704 251 672 251C640 251 608 251 576 251C544 251 512 251 480 251C448 251 416 251 384 251C352 251 320 251 288 251C256 251 224 251 192 251C160 251 128 251 96 251C64 251 32 251 16 251L0 251Z" fill="#54008b"></path><path d="M0 214L16 214.8C32 215.7 64 217.3 96 215.2C128 213 160 207 192 209C224 211 256 221 288 219.3C320 217.7 352 204.3 384 195.7C416 187 448 183 480 185.7C512 188.3 544 197.7 576 198.2C608 198.7 640 190.3 672 183.7C704 177 736 172 768 177.3C800 182.7 832 198.3 864 199.3C896 200.3 928 186.7 944 179.8L960 173L960 251L944 251C928 251 896 251 864 251C832 251 800 251 768 251C736 251 704 251 672 251C640 251 608 251 576 251C544 251 512 251 480 251C448 251 416 251 384 251C352 251 320 251 288 251C256 251 224 251 192 251C160 251 128 251 96 251C64 251 32 251 16 251L0 251Z" fill="#000000"></path></svg>